{"title":"Night at the Museum Secret of the Tomb (2014) 1080p Bluray x264","uid":11730879,"size":3010323794,"categoryP":"video","categoryS":"hd___movies","magnet":"?xt=urn:btih:9b4042e0a3807fc0cc2f7b4d353582ff9a4860b3&amp;dn=Night+at+the+Museum+Secret+of+the+Tomb+%282014%29+1080p+Bluray+x264+&amp;tr=udp%3A%2F%2Ftracker.openbittorrent.com%3A80&amp;tr=udp%3A%2F%2Fopen.demonii.com%3A1337&amp;tr=udp%3A%2F%2Ftracker.coppersurfer.tk%3A6969&amp;tr=udp%3A%2F%2Fexodus.desync.com%3A6969","seeders":2,"leechers":0,"uploader":"kamalesh","files":14,"time":1425399196,"description":"[center][img]http://i.imgur.com/fpbkI4q.jpg[/img]\n\n[b]IMDB : [url]http://www.imdb.com/title/tt2692250/[/url][/b]\n\n[img]http://i.imgur.com/5oJTBSv.png[/img]\n\n[b]Source  :  Untouched BluRay Disc 50GB[/b]\n\n[b]General\nUnique ID                   : Night at the Museum Secret of the Tomb (2014) 1080p Bluray x264 DTS -=BY @Kamalesh=-.mkv\nFormat                      : Matroska\nFormat version              : Version 4 / Version 2\nFile size                   : 2.75 GiB\nDuration                    : 1h 31mn\nOverall bit rate            : 4 297 Kbps\n\nVideo\nID                          : 2\nFormat                      : AVC\nFormat/Info                 : Advanced Video Codec\nFormat profile              : &lt;a class=&quot;__cf_email__&quot; href=&quot;/cdn-cgi/l/email-protection&quot; data-cfemail=&quot;4800212f2008047c6679&quot;&gt;[email&amp;#160;protected]&lt;/a&gt;&lt;script cf-hash='f9e31' type=&quot;text/javascript&quot;&gt;\n/* &lt;![CDATA[ */!function(){try{var t=&quot;currentScript&quot;in document?document.currentScript:function(){for(var t=document.getElementsByTagName(&quot;script&quot;),e=t.length;e--;)if(t[e].getAttribute(&quot;cf-hash&quot;))return t[e]}();if(t&amp;&amp;t.previousSibling){var e,r,n,i,c=t.previousSibling,a=c.getAttribute(&quot;data-cfemail&quot;);if(a){for(e=&quot;&quot;,r=parseInt(a.substr(0,2),16),n=2;a.length-n;n+=2)i=parseInt(a.substr(n,2),16)^r,e+=String.fromCharCode(i);e=document.createTextNode(e),c.parentNode.replaceChild(e,c)}}}catch(u){}}();/* ]]&gt; */&lt;/script&gt;\nFormat settings, CABAC      : Yes\nFormat settings, ReFrames   : 4 frames\nCodec ID                    : V_MPEG4/ISO/AVC\nDuration                    : 1h 31mn\nBit rate                    : 3 500 Kbps\nWidth                       : 1 920 pixels\nHeight                      : 1 040 pixels\nDisplay aspect ratio        : 1.85:1\nFrame rate mode             : Constant\nFrame rate                  : 23.976 fps\nColor space                 : YUV\nChroma subsampling          : 4:2:0\nBit depth                   : 8 bits\nScan type                   : Progressive\nBits/(Pixel*Frame)          : 0.073\nStream size                 : 2.20 GiB (80%)\nWriting library             : x264 core 142 r2431 ac76440\nDefault                     : Yes\nForced                      : No\nColor primaries             : Generic film\nTransfer characteristics    : BT.709\nMatrix coefficients         : BT.709\nColor range                 : Limited\n\nAudio\nID                          : 1\nFormat                      : DTS\nFormat/Info                 : Digital Theater Systems\nMode                        : 16\nFormat settings, Endianness : Big\nCodec ID                    : A_DTS\nDuration                    : 1h 31mn\nBit rate mode               : Constant\nBit rate                    : 768 Kbps\nChannel(s)                  : 6 channels\nChannel positions           : Front: L C R, Side: L R, LFE\nSampling rate               : 48.0 KHz\nBit depth                   : 24 bits\nCompression mode            : Lossy\nStream size                 : 503 MiB (18%)\nDefault                     : Yes\nForced                      : No\n\nText #1\nID                          : 3\nFormat                      : PGS\nMuxing mode                 : zlib\nCodec ID                    : S_HDMV/PGS\nCodec ID/Info               : The same subtitle format used on BDs/HD-DVDs\nLanguage                    : English\nDefault                     : Yes\nForced                      : No\n\nText #2\nID                          : 4\nFormat                      : PGS\nMuxing mode                 : zlib\nCodec ID                    : S_HDMV/PGS\nCodec ID/Info               : The same subtitle format used on BDs/HD-DVDs\nLanguage                    : Spanish\nDefault                     : No\nForced                      : No\n\nText #3\nID                          : 5\nFormat                      : PGS\nMuxing mode                 : zlib\nCodec ID                    : S_HDMV/PGS\nCodec ID/Info               : The same subtitle format used on BDs/HD-DVDs\nLanguage                    : French\nDefault                     : No\nForced                      : No[/b]\n\n[img]http://i.imgur.com/wP9F3tc.png[/img]\n\n[URL=http://someimage.com/Mldylnr][IMG]http://t1.someimage.com/Mldylnr.jpg[/IMG][/URL] [URL=http://someimage.com/cy2F9MR][IMG]http://t1.someimage.com/cy2F9MR.jpg[/IMG][/URL] [URL=http://someimage.com/dFOUvHH][IMG]http://t1.someimage.com/dFOUvHH.jpg[/IMG][/URL] [URL=http://someimage.com/vigpgjh][IMG]http://t1.someimage.com/vigpgjh.jpg[/IMG][/URL] [URL=http://someimage.com/KcxdfCZ][IMG]http://t1.someimage.com/KcxdfCZ.jpg[/IMG][/URL] [URL=http://someimage.com/y4mVZjL][IMG]http://t1.someimage.com/y4mVZjL.jpg[/IMG][/URL] [URL=http://someimage.com/XuVdWes][IMG]http://t1.someimage.com/XuVdWes.jpg[/IMG][/URL] [URL=http://someimage.com/sEKac4e][IMG]http://t1.someimage.com/sEKac4e.jpg[/IMG][/URL] [URL=http://someimage.com/MUd5AiC][IMG]http://t1.someimage.com/MUd5AiC.jpg[/IMG][/URL] [URL=http://someimage.com/2HB0YkG][IMG]http://t1.someimage.com/2HB0YkG.jpg[/IMG][/URL] [URL=http://someimage.com/lnzmtAm][IMG]http://t1.someimage.com/lnzmtAm.jpg[/IMG][/URL] [/center]","torrent":{"xt":"urn:btih:9b4042e0a3807fc0cc2f7b4d353582ff9a4860b3","amp;dn":"Night+at+the+Museum+Secret+of+the+Tomb+%282014%29+1080p+Bluray+x264+","amp;tr":["udp%3A%2F%2Ftracker.openbittorrent.com%3A80","udp%3A%2F%2Fopen.demonii.com%3A1337","udp%3A%2F%2Ftracker.coppersurfer.tk%3A6969","udp%3A%2F%2Fexodus.desync.com%3A6969"],"infoHash":"9b4042e0a3807fc0cc2f7b4d353582ff9a4860b3","infoHashBuffer":{"type":"Buffer","data":[155,64,66,224,163,128,127,192,204,47,123,77,53,53,130,255,154,72,96,179]},"announce":[],"urlList":[]}}